<?xml version="1.0" encoding="utf-8"?>
<!-- Generator: Adobe Illustrator 15.0.0, SVG Export Plug-In . SVG Version: 6.00 Build 0)  -->
<!DOCTYPE svg PUBLIC "-//W3C//DTD SVG 1.1//EN" "http://www.w3.org/Graphics/SVG/1.1/DTD/svg11.dtd">
<svg version="1.1" id="Layer_1" xmlns="http://www.w3.org/2000/svg" xmlns:xlink="http://www.w3.org/1999/xlink" x="0px" y="0px"
	 width="100px" height="100px" viewBox="-16.5 -16.5 100 100" enable-background="new -16.5 -16.5 100 100" xml:space="preserve">
<path fill="#333333" d="M26.442,60.7h11.24V33.496h7.498l0.993-9.372h-8.491l0.011-4.694c0-2.444,0.234-3.755,3.74-3.755h4.688V6.3
	h-7.5c-9.008,0-12.178,4.548-12.178,12.195v5.629h-5.615v9.375h5.615L26.442,60.7L26.442,60.7z M33.5,83.5
	c-27.613,0-50-22.387-50-50c0-27.615,22.387-50,50-50c27.613,0,50,22.385,50,50C83.5,61.113,61.113,83.5,33.5,83.5z"/>
</svg>
