<?xml version="1.0" encoding="utf-8"?>
<!-- Generator: Adobe Illustrator 16.0.0, SVG Export Plug-In . SVG Version: 6.00 Build 0)  -->
<!DOCTYPE svg PUBLIC "-//W3C//DTD SVG 1.1//EN" "http://www.w3.org/Graphics/SVG/1.1/DTD/svg11.dtd">
<svg version="1.1" id="Layer_1" xmlns="http://www.w3.org/2000/svg" xmlns:xlink="http://www.w3.org/1999/xlink" x="0px" y="0px"
	 width="100px" height="100px" viewBox="-16.5 -16.5 100 100" enable-background="new -16.5 -16.5 100 100" xml:space="preserve">
<path fill="#666666" d="M27.147,57.98h10.116V33.496h6.749l0.893-8.435h-7.642l0.01-4.225c0-2.2,0.211-3.38,3.366-3.38h4.219V9.02
	h-6.75c-8.107,0-10.96,4.094-10.96,10.976v5.066h-5.053v8.438h5.053L27.147,57.98L27.147,57.98z M33.5,78.5
	c-24.852,0-45-20.148-45-45c0-24.854,20.148-45,45-45s45,20.146,45,45C78.5,58.352,58.352,78.5,33.5,78.5z"/>
</svg>
