<?xml version="1.0" encoding="utf-8"?>
<!-- Generator: Adobe Illustrator 15.0.0, SVG Export Plug-In . SVG Version: 6.00 Build 0)  -->
<!DOCTYPE svg PUBLIC "-//W3C//DTD SVG 1.1//EN" "http://www.w3.org/Graphics/SVG/1.1/DTD/svg11.dtd">
<svg version="1.1" id="Layer_1" xmlns="http://www.w3.org/2000/svg" xmlns:xlink="http://www.w3.org/1999/xlink" x="0px" y="0px"
	 width="100px" height="100px" viewBox="-21.654 -21.654 100 100" enable-background="new -21.654 -21.654 100 100"
	 xml:space="preserve">
<g>
	<polygon fill="#333333" points="48.987,17.402 48.987,9.387 48.987,8.19 47.788,8.194 39.774,8.221 39.803,17.432 	"/>
	<path fill="#333333" d="M28.098,38.674c5.276,0,9.571-4.291,9.571-9.566c0-2.082-0.679-4.009-1.814-5.58
		c-1.735-2.407-4.565-3.99-7.756-3.99c-3.192,0-6.016,1.583-7.756,3.99c-1.135,1.57-1.809,3.498-1.809,5.58
		C18.532,34.383,22.822,38.674,28.098,38.674z"/>
	<path fill="#333333" d="M28.348-21.654c-27.616,0-50.002,22.384-50.002,49.998c0,27.615,22.386,50.001,50.002,50.001
		c27.611,0,49.998-22.389,49.998-50.001C78.346,0.73,55.957-21.654,28.348-21.654z M55.279,23.528v22.256
		c0,5.792-4.716,10.502-10.506,10.502H11.422c-5.794,0-10.505-4.71-10.505-10.502V23.528V12.433c0-5.794,4.711-10.503,10.505-10.503
		h33.351c5.79,0,10.506,4.709,10.506,10.503V23.528L55.279,23.528z"/>
	<path fill="#333333" d="M42.961,29.107c0,8.194-6.664,14.864-14.863,14.864c-8.197,0-14.859-6.67-14.859-14.864
		c0-1.975,0.392-3.854,1.09-5.58H6.215v22.256c0,2.871,2.336,5.208,5.208,5.208h33.351c2.871,0,5.205-2.337,5.205-5.208V23.528
		H41.86C42.566,25.253,42.961,27.134,42.961,29.107z"/>
</g>
</svg>
