<?xml version="1.0" encoding="utf-8"?>
<!-- Generator: Adobe Illustrator 16.0.0, SVG Export Plug-In . SVG Version: 6.00 Build 0)  -->
<!DOCTYPE svg PUBLIC "-//W3C//DTD SVG 1.1//EN" "http://www.w3.org/Graphics/SVG/1.1/DTD/svg11.dtd">
<svg version="1.1" id="Layer_1" xmlns="http://www.w3.org/2000/svg" xmlns:xlink="http://www.w3.org/1999/xlink" x="0px" y="0px"
	 width="100px" height="100px" viewBox="-21.654 -21.654 100 100" enable-background="new -21.654 -21.654 100 100"
	 xml:space="preserve">
<g>
	<polygon fill="#666666" points="46.923,18.497 46.923,11.283 46.923,10.206 45.844,10.209 38.631,10.234 38.658,18.523 	"/>
	<path fill="#666666" d="M28.123,37.641c4.748,0,8.614-3.862,8.614-8.609c0-1.874-0.611-3.608-1.633-5.022
		c-1.561-2.166-4.108-3.591-6.98-3.591c-2.873,0-5.415,1.425-6.981,3.591c-1.021,1.413-1.627,3.148-1.627,5.022
		C19.514,33.779,23.375,37.641,28.123,37.641z"/>
	<path fill="#666666" d="M28.348-16.654c-24.854,0-45.002,20.146-45.002,44.999c0,24.853,20.147,45.001,45.002,45.001
		c24.849,0,44.998-20.15,44.998-45.001C73.346,3.492,53.195-16.654,28.348-16.654z M52.586,24.01v20.031
		c0,5.213-4.245,9.452-9.456,9.452H13.114c-5.214,0-9.454-4.239-9.454-9.452V24.01v-9.985c0-5.214,4.24-9.453,9.454-9.453H43.13
		c5.21,0,9.456,4.238,9.456,9.453V24.01L52.586,24.01z"/>
	<path fill="#666666" d="M41.5,29.031c0,7.375-5.998,13.378-13.376,13.378c-7.377,0-13.374-6.003-13.374-13.378
		c0-1.777,0.353-3.468,0.981-5.022H8.428V44.04c0,2.583,2.102,4.687,4.687,4.687h30.016c2.584,0,4.685-2.104,4.685-4.687V24.01
		h-7.307C41.144,25.562,41.5,27.255,41.5,29.031z"/>
</g>
</svg>
