<?xml version="1.0" encoding="utf-8"?>
<!-- Generator: Adobe Illustrator 16.0.0, SVG Export Plug-In . SVG Version: 6.00 Build 0)  -->
<!DOCTYPE svg PUBLIC "-//W3C//DTD SVG 1.1//EN" "http://www.w3.org/Graphics/SVG/1.1/DTD/svg11.dtd">
<svg version="1.1" id="Layer_1" xmlns="http://www.w3.org/2000/svg" xmlns:xlink="http://www.w3.org/1999/xlink" x="0px" y="0px"
	 width="581.371px" height="106.768px" viewBox="0 0 581.371 106.768" enable-background="new 0 0 581.371 106.768"
	 xml:space="preserve">
<g>
	<path d="M60.144,30.979c0.666-1.492,1.422-3.198,2.271-5.114c0.847-1.917,1.714-3.884,2.603-5.902
		c2.058-4.681,4.419-10.028,7.082-16.042h3.935L57.995,44.357l-10.533-22.64l-10.896,22.64L18.406,3.921h3.935l14.225,32.143
		l9.08-18.523c-0.403-0.968-0.847-2.018-1.332-3.147c-0.484-1.13-0.989-2.28-1.513-3.451c-0.524-1.17-1.029-2.32-1.514-3.451
		c-0.484-1.128-0.929-2.179-1.331-3.147h3.874l3.693,8.717c0.484-1.129,0.958-2.209,1.422-3.238c0.464-1.03,0.856-1.947,1.181-2.754
		c0.403-0.928,0.787-1.796,1.15-2.603h3.874L49.46,17.54c0.887,1.777,1.644,3.35,2.27,4.722c0.625,1.373,1.312,2.866,2.059,4.48
		c0.747,1.614,1.432,3.108,2.058,4.479c0.625,1.372,1.341,2.966,2.148,4.782C58.761,34.148,59.478,32.472,60.144,30.979z"/>
	<path d="M94.678,21.899H84.206L73.552,43.812h-4.116L89.412,3.8l19.673,40.013h-3.935L94.678,21.899z M85.84,18.448h7.264
		l-3.632-7.445L85.84,18.448z"/>
	<path d="M100.065,3.921h5.024l15.739,14.649l14.467-14.649h4.843l-17.555,17.979v21.913h-3.511V21.899L100.065,3.921z"/>
	<path d="M184.054,30.979c0.666-1.492,1.422-3.198,2.271-5.114c0.847-1.917,1.714-3.884,2.603-5.902
		c2.058-4.681,4.419-10.028,7.082-16.042h3.935l-18.038,40.437l-10.534-22.64l-10.896,22.64l-18.16-40.437h3.935l14.226,32.143
		l9.08-18.523c-0.403-0.968-0.847-2.018-1.332-3.147c-0.484-1.13-0.989-2.28-1.513-3.451c-0.525-1.17-1.029-2.32-1.513-3.451
		c-0.485-1.128-0.929-2.179-1.332-3.147h3.874l3.693,8.717c0.484-1.129,0.958-2.209,1.422-3.238c0.464-1.03,0.857-1.947,1.181-2.754
		c0.403-0.928,0.787-1.796,1.15-2.603h3.874l-5.69,13.075c0.887,1.777,1.644,3.35,2.271,4.722c0.624,1.373,1.311,2.866,2.058,4.48
		c0.747,1.614,1.432,3.108,2.058,4.479c0.625,1.372,1.341,2.966,2.148,4.782C182.672,34.148,183.389,32.472,184.054,30.979z"/>
	<path d="M218.589,21.899h-10.472l-10.655,21.913h-4.116L213.323,3.8l19.673,40.013h-3.935L218.589,21.899z M209.751,18.448h7.264
		l-3.632-7.445L209.751,18.448z"/>
	<path d="M240.865,21.838v21.974h-3.511V3.921h17.493c1.775,0,3.39,0.151,4.843,0.454c1.453,0.303,2.694,0.798,3.724,1.483
		c1.029,0.686,1.825,1.604,2.39,2.754c0.565,1.15,0.848,2.594,0.848,4.328c0,1.049-0.131,2.088-0.394,3.118
		c-0.263,1.029-0.696,1.967-1.301,2.814c-0.605,0.848-1.414,1.543-2.421,2.088c-1.01,0.545-2.261,0.837-3.754,0.877l11.501,21.974
		h-4.056l-11.138-21.974H240.865z M240.865,7.431v11.017h14.165c1.291,0,2.441-0.069,3.451-0.211
		c1.008-0.141,1.856-0.403,2.542-0.787c0.686-0.383,1.211-0.938,1.574-1.664c0.363-0.727,0.545-1.675,0.545-2.845
		c0-2.099-0.657-3.542-1.968-4.328c-1.312-0.787-3.42-1.181-6.326-1.181H240.865z"/>
	<path d="M289.11,3.921c2.744,0,5.327,0.525,7.748,1.574c2.422,1.049,4.54,2.482,6.355,4.298c1.816,1.816,3.249,3.935,4.299,6.356
		c1.048,2.422,1.574,5.004,1.574,7.749s-0.526,5.327-1.574,7.748c-1.05,2.422-2.482,4.53-4.299,6.326
		c-1.815,1.795-3.935,3.219-6.355,4.267c-2.421,1.05-5.004,1.574-7.748,1.574h-12.833V3.921H289.11z M305.575,23.897
		c0-2.26-0.435-4.389-1.301-6.386c-0.868-1.998-2.049-3.743-3.541-5.236c-1.494-1.493-3.238-2.673-5.237-3.541
		c-1.998-0.868-4.127-1.302-6.386-1.302h-9.323v32.87h9.323c2.259,0,4.388-0.424,6.386-1.271c1.998-0.848,3.743-2.017,5.237-3.511
		c1.492-1.493,2.673-3.228,3.541-5.206C305.14,28.336,305.575,26.197,305.575,23.897z"/>
	<path d="M380.424,30.979c0.667-1.492,1.423-3.198,2.27-5.114c0.848-1.917,1.715-3.884,2.603-5.902
		c2.06-4.681,4.42-10.028,7.083-16.042h3.935l-18.039,40.437l-10.532-22.64l-10.896,22.64L338.686,3.921h3.936l14.224,32.143
		l9.081-18.523c-0.403-0.968-0.848-2.018-1.332-3.147c-0.484-1.13-0.989-2.28-1.514-3.451c-0.525-1.17-1.029-2.32-1.514-3.451
		c-0.484-1.128-0.929-2.179-1.331-3.147h3.874l3.692,8.717c0.484-1.129,0.959-2.209,1.423-3.238c0.462-1.03,0.855-1.947,1.18-2.754
		c0.403-0.928,0.787-1.796,1.151-2.603h3.874l-5.69,13.075c0.887,1.777,1.644,3.35,2.269,4.722c0.626,1.373,1.312,2.866,2.061,4.48
		c0.746,1.614,1.432,3.108,2.058,4.479c0.624,1.372,1.341,2.966,2.147,4.782C379.042,34.148,379.759,32.472,380.424,30.979z"/>
	<path d="M416.773,3.558c2.786,0,5.409,0.535,7.87,1.604c2.462,1.069,4.61,2.522,6.447,4.358c1.835,1.837,3.278,3.995,4.327,6.477
		s1.574,5.115,1.574,7.9c0,2.784-0.525,5.417-1.574,7.899s-2.492,4.641-4.327,6.478c-1.837,1.836-3.985,3.289-6.447,4.358
		c-2.462,1.07-5.084,1.604-7.87,1.604c-2.823,0-5.477-0.535-7.96-1.604c-2.479-1.069-4.64-2.521-6.477-4.358
		c-1.835-1.836-3.289-3.996-4.357-6.478c-1.07-2.482-1.604-5.115-1.604-7.899c0-2.785,0.534-5.418,1.604-7.9
		c1.069-2.482,2.522-4.64,4.357-6.477c1.836-1.836,3.997-3.289,6.477-4.358C411.297,4.093,413.949,3.558,416.773,3.558z
		 M433.481,23.897c0-2.34-0.435-4.53-1.301-6.568c-0.868-2.038-2.058-3.814-3.571-5.327c-1.515-1.514-3.29-2.713-5.326-3.602
		c-2.039-0.887-4.208-1.331-6.51-1.331c-2.34,0-4.539,0.444-6.597,1.331c-2.059,0.889-3.844,2.088-5.357,3.602
		c-1.514,1.513-2.715,3.29-3.602,5.327c-0.889,2.038-1.332,4.228-1.332,6.568c0,2.341,0.443,4.531,1.332,6.567
		c0.887,2.039,2.088,3.814,3.602,5.328c1.514,1.513,3.299,2.714,5.357,3.602c2.058,0.888,4.257,1.332,6.597,1.332
		c2.302,0,4.471-0.444,6.51-1.332c2.036-0.888,3.812-2.088,5.326-3.602c1.514-1.514,2.703-3.289,3.571-5.328
		C433.047,28.427,433.481,26.238,433.481,23.897z"/>
	<path d="M482.574,2.952v40.86h-3.511V11.79L462.9,28.195l-16.223-16.586v32.204h-3.511V2.892l19.733,20.46L482.574,2.952z"/>
	<path d="M512.174,21.899h-10.472l-10.654,21.913h-4.116L506.908,3.8l19.673,40.013h-3.935L512.174,21.899z M503.336,18.448h7.264
		l-3.632-7.445L503.336,18.448z"/>
	<path d="M562.9,3.921v40.497l-28.45-32.506v31.901h-3.511V3.073l28.45,32.265V3.921H562.9z"/>
	<path d="M202.457,63.319v3.512h-14.165v36.38h-3.512V66.83h-14.286v-3.512H202.457z"/>
	<path d="M221.162,81.297h-10.473l-10.653,21.913h-4.117l19.977-40.012l19.673,40.012h-3.935L221.162,81.297z M212.323,77.847h7.265
		l-3.632-7.445L212.323,77.847z"/>
	<path d="M264.019,63.319v3.512h-14.165v36.38h-3.511V66.83h-14.287v-3.512H264.019z"/>
	<path d="M300.158,63.319v3.512h-14.165v36.38h-3.511V66.83h-14.286v-3.512H300.158z"/>
	<path d="M318.863,62.956c2.783,0,5.407,0.534,7.868,1.604c2.462,1.069,4.609,2.522,6.446,4.357
		c1.836,1.837,3.278,3.995,4.329,6.477c1.047,2.482,1.572,5.115,1.572,7.9s-0.525,5.417-1.572,7.899
		c-1.051,2.481-2.493,4.642-4.329,6.478c-1.837,1.836-3.985,3.289-6.446,4.357c-2.462,1.07-5.085,1.604-7.868,1.604
		c-2.826,0-5.479-0.534-7.96-1.604c-2.483-1.068-4.642-2.521-6.479-4.357s-3.29-3.996-4.357-6.478
		c-1.069-2.482-1.604-5.114-1.604-7.899s0.535-5.418,1.604-7.9c1.068-2.481,2.521-4.64,4.357-6.477
		c1.836-1.835,3.995-3.288,6.479-4.357C313.384,63.49,316.037,62.956,318.863,62.956z M335.57,83.295
		c0-2.34-0.434-4.529-1.303-6.568c-0.868-2.036-2.059-3.813-3.57-5.326c-1.513-1.514-3.29-2.714-5.327-3.602
		c-2.038-0.888-4.207-1.332-6.507-1.332c-2.342,0-4.541,0.444-6.6,1.332s-3.844,2.088-5.357,3.602
		c-1.513,1.513-2.713,3.29-3.602,5.326c-0.888,2.039-1.332,4.229-1.332,6.568c0,2.341,0.444,4.53,1.332,6.568
		c0.887,2.037,2.089,3.812,3.602,5.326c1.514,1.514,3.299,2.715,5.357,3.602c2.059,0.889,4.258,1.332,6.6,1.332
		c2.3,0,4.469-0.443,6.507-1.332c2.037-0.887,3.814-2.088,5.327-3.602s2.702-3.289,3.57-5.326
		C335.136,87.825,335.57,85.636,335.57,83.295z"/>
	<path d="M362.205,62.956c2.783,0,5.407,0.534,7.869,1.604c2.461,1.069,4.609,2.522,6.446,4.357
		c1.834,1.837,3.278,3.995,4.328,6.477c1.048,2.482,1.572,5.115,1.572,7.9s-0.524,5.417-1.572,7.899
		c-1.05,2.481-2.494,4.642-4.328,6.478c-1.837,1.836-3.985,3.289-6.446,4.357c-2.463,1.07-5.086,1.604-7.869,1.604
		c-2.825,0-5.479-0.534-7.96-1.604c-2.482-1.068-4.642-2.521-6.478-4.357c-1.837-1.836-3.29-3.996-4.358-6.478
		c-1.071-2.482-1.604-5.114-1.604-7.899s0.533-5.418,1.604-7.9c1.069-2.481,2.521-4.64,4.358-6.477
		c1.835-1.835,3.995-3.288,6.478-4.357C356.725,63.49,359.38,62.956,362.205,62.956z M378.912,83.295
		c0-2.34-0.435-4.529-1.303-6.568c-0.868-2.036-2.058-3.813-3.57-5.326c-1.514-1.514-3.291-2.714-5.326-3.602
		c-2.039-0.888-4.208-1.332-6.508-1.332c-2.341,0-4.541,0.444-6.6,1.332c-2.058,0.888-3.843,2.088-5.357,3.602
		c-1.513,1.513-2.713,3.29-3.601,5.326c-0.888,2.039-1.332,4.229-1.332,6.568c0,2.341,0.444,4.53,1.332,6.568
		c0.887,2.037,2.088,3.812,3.601,5.326c1.515,1.514,3.3,2.715,5.357,3.602c2.059,0.889,4.259,1.332,6.6,1.332
		c2.3,0,4.469-0.443,6.508-1.332c2.035-0.887,3.812-2.088,5.326-3.602s2.702-3.289,3.57-5.326
		C378.477,87.825,378.912,85.636,378.912,83.295z"/>
	<path d="M415.595,90.62c-0.041,2.058-0.484,3.904-1.332,5.538c-0.848,1.635-2.019,3.026-3.51,4.177
		c-1.494,1.149-3.25,2.028-5.267,2.633c-2.019,0.605-4.218,0.908-6.599,0.908c-0.929,0-1.997-0.051-3.209-0.151
		c-1.211-0.101-2.452-0.252-3.723-0.453c-1.272-0.202-2.513-0.475-3.724-0.817s-2.28-0.736-3.209-1.181
		c0.201-0.443,0.423-0.999,0.666-1.665s0.485-1.2,0.727-1.604l0.363,0.121c2.058,0.646,4.096,1.191,6.114,1.635
		c2.018,0.444,4.136,0.666,6.357,0.666c1.371,0,2.822-0.19,4.356-0.575c1.533-0.383,2.946-0.978,4.238-1.785
		c1.291-0.808,2.36-1.836,3.208-3.088c0.848-1.25,1.271-2.764,1.271-4.54c0-0.483-0.162-1.22-0.484-2.209
		c-0.324-0.988-0.969-1.977-1.938-2.966c-0.968-0.988-2.36-1.867-4.177-2.634c-1.815-0.766-4.218-1.149-7.204-1.149
		c-1.209,0-2.552-0.161-4.024-0.484c-1.474-0.323-2.855-0.848-4.146-1.574c-1.292-0.727-2.372-1.675-3.238-2.846
		c-0.868-1.169-1.304-2.603-1.304-4.298v-0.242c0.082-2.784,1.394-4.964,3.935-6.537c2.543-1.574,6.014-2.401,10.413-2.482
		c1.008,0,1.947,0.021,2.815,0.062c0.867,0.04,1.725,0.141,2.572,0.303c0.848,0.161,1.705,0.373,2.573,0.636
		c0.868,0.262,1.786,0.614,2.754,1.059l-1.029,3.269c-1.331-0.686-2.725-1.23-4.176-1.634c-1.452-0.403-3.291-0.605-5.509-0.605
		c-1.533,0-2.947,0.121-4.237,0.363c-1.292,0.242-2.412,0.616-3.359,1.119c-0.949,0.506-1.695,1.141-2.24,1.907
		s-0.817,1.655-0.817,2.663c0,0.969,0.293,1.827,0.879,2.573c0.585,0.747,1.32,1.383,2.209,1.906
		c0.887,0.525,1.876,0.919,2.967,1.181c1.09,0.264,2.139,0.394,3.148,0.394h0.545c1.815,0,3.69,0.242,5.629,0.727
		c1.938,0.484,3.701,1.231,5.296,2.239c1.595,1.01,2.896,2.281,3.905,3.814c1.009,1.534,1.513,3.328,1.513,5.388V90.62
		L415.595,90.62z"/>
</g>
</svg>
