<?xml version="1.0" encoding="utf-8"?>
<!-- Generator: Adobe Illustrator 16.0.0, SVG Export Plug-In . SVG Version: 6.00 Build 0)  -->
<!DOCTYPE svg PUBLIC "-//W3C//DTD SVG 1.1//EN" "http://www.w3.org/Graphics/SVG/1.1/DTD/svg11.dtd">
<svg version="1.1" id="Layer_1" xmlns="http://www.w3.org/2000/svg" xmlns:xlink="http://www.w3.org/1999/xlink" x="0px" y="0px"
	 width="581.371px" height="106.768px" viewBox="0 0 581.371 106.768" enable-background="new 0 0 581.371 106.768"
	 xml:space="preserve">
<g>
	<path d="M46.944,29.696c0.704-1.578,1.504-3.381,2.4-5.408c0.896-2.026,1.813-4.106,2.752-6.24
		c2.176-4.949,4.672-10.602,7.488-16.96h4.16L44.672,43.84L33.536,19.904L22.016,43.84L2.816,1.088h4.16l15.04,33.984l9.6-19.584
		c-0.427-1.024-0.896-2.133-1.408-3.328c-0.512-1.194-1.046-2.41-1.6-3.648c-0.555-1.237-1.088-2.453-1.6-3.648
		C26.496,3.67,26.026,2.56,25.6,1.536h4.096l3.904,9.216c0.512-1.194,1.013-2.336,1.504-3.424c0.49-1.088,0.906-2.058,1.248-2.912
		c0.426-0.981,0.832-1.898,1.216-2.752h4.096l-6.016,13.824c0.938,1.878,1.738,3.542,2.4,4.992c0.661,1.451,1.386,3.03,2.176,4.736
		c0.789,1.707,1.514,3.286,2.176,4.736c0.661,1.451,1.418,3.136,2.272,5.056C45.482,33.046,46.24,31.275,46.944,29.696z"/>
	<path d="M83.456,20.096H72.384L61.12,43.264h-4.352L77.888,0.96l20.8,42.304h-4.16L83.456,20.096z M74.111,16.448h7.68l-3.84-7.872
		L74.111,16.448z"/>
	<path d="M89.151,1.088h5.312l16.64,15.488l15.296-15.488h5.12l-18.56,19.008v23.168h-3.712V20.096L89.151,1.088z"/>
	<path d="M177.95,29.696c0.704-1.578,1.504-3.381,2.4-5.408c0.896-2.026,1.813-4.106,2.752-6.24
		c2.176-4.949,4.672-10.602,7.488-16.96h4.16L175.678,43.84l-11.136-23.936l-11.52,23.936l-19.2-42.752h4.16l15.04,33.984
		l9.6-19.584c-0.427-1.024-0.896-2.133-1.408-3.328c-0.512-1.194-1.046-2.41-1.6-3.648c-0.555-1.237-1.088-2.453-1.6-3.648
		c-0.512-1.194-0.982-2.304-1.408-3.328h4.096l3.904,9.216c0.512-1.194,1.013-2.336,1.504-3.424c0.49-1.088,0.906-2.058,1.248-2.912
		c0.426-0.981,0.832-1.898,1.216-2.752h4.096l-6.016,13.824c0.938,1.878,1.738,3.542,2.4,4.992c0.661,1.451,1.386,3.03,2.176,4.736
		c0.789,1.707,1.514,3.286,2.176,4.736c0.661,1.451,1.418,3.136,2.272,5.056C176.488,33.046,177.247,31.275,177.95,29.696z"/>
	<path d="M214.462,20.096H203.39l-11.264,23.168h-4.352l21.12-42.304l20.8,42.304h-4.16L214.462,20.096z M205.118,16.448h7.68
		l-3.84-7.872L205.118,16.448z"/>
	<path d="M238.014,20.032v23.232h-3.712V1.088h18.496c1.877,0,3.584,0.16,5.12,0.48c1.536,0.32,2.848,0.843,3.936,1.568
		c1.088,0.726,1.93,1.696,2.528,2.912c0.597,1.216,0.896,2.742,0.896,4.576c0,1.11-0.139,2.208-0.416,3.296
		c-0.278,1.088-0.736,2.08-1.376,2.976s-1.494,1.632-2.56,2.208c-1.067,0.576-2.39,0.886-3.968,0.928l12.16,23.232h-4.288
		l-11.776-23.232H238.014z M238.014,4.8v11.648h14.976c1.365,0,2.581-0.074,3.648-0.224c1.066-0.149,1.962-0.426,2.688-0.832
		c0.725-0.405,1.28-0.992,1.664-1.76c0.384-0.768,0.576-1.77,0.576-3.008c0-2.218-0.694-3.744-2.08-4.576
		c-1.387-0.832-3.616-1.248-6.688-1.248H238.014z"/>
	<path d="M289.021,1.088c2.901,0,5.632,0.555,8.192,1.664c2.56,1.11,4.799,2.624,6.719,4.544c1.92,1.92,3.435,4.16,4.545,6.72
		c1.108,2.56,1.664,5.291,1.664,8.192c0,2.902-0.556,5.632-1.664,8.192c-1.11,2.56-2.625,4.79-4.545,6.688
		c-1.92,1.899-4.16,3.403-6.719,4.512c-2.56,1.11-5.291,1.664-8.192,1.664h-13.568V1.088H289.021z M306.429,22.208
		c0-2.389-0.459-4.64-1.375-6.752c-0.918-2.112-2.166-3.957-3.744-5.536c-1.58-1.578-3.424-2.826-5.537-3.744
		c-2.112-0.917-4.363-1.376-6.752-1.376h-9.856v34.752h9.856c2.389,0,4.64-0.448,6.752-1.344c2.112-0.896,3.957-2.133,5.537-3.712
		c1.578-1.578,2.826-3.413,3.744-5.504C305.97,26.902,306.429,24.64,306.429,22.208z"/>
	<path d="M385.564,29.696c0.705-1.578,1.505-3.381,2.4-5.408c0.896-2.026,1.813-4.106,2.752-6.24
		c2.176-4.949,4.672-10.602,7.488-16.96h4.16L383.292,43.84l-11.136-23.936L360.636,43.84L341.437,1.088h4.16l15.039,33.984
		l9.601-19.584c-0.427-1.024-0.896-2.133-1.408-3.328c-0.513-1.194-1.046-2.41-1.601-3.648c-0.555-1.237-1.088-2.453-1.6-3.648
		c-0.512-1.194-0.982-2.304-1.408-3.328h4.096l3.904,9.216c0.512-1.194,1.014-2.336,1.504-3.424s0.906-2.058,1.248-2.912
		c0.426-0.981,0.832-1.898,1.217-2.752h4.096l-6.016,13.824c0.938,1.878,1.738,3.542,2.399,4.992
		c0.661,1.451,1.386,3.03,2.177,4.736c0.789,1.707,1.514,3.286,2.176,4.736c0.66,1.451,1.418,3.136,2.271,5.056
		C384.103,33.046,384.861,31.275,385.564,29.696z"/>
	<path d="M423.996,0.704c2.945,0,5.718,0.566,8.32,1.696c2.603,1.131,4.875,2.667,6.816,4.608c1.941,1.942,3.466,4.224,4.576,6.848
		c1.109,2.624,1.664,5.408,1.664,8.352c0,2.944-0.555,5.728-1.664,8.352c-1.11,2.624-2.635,4.907-4.576,6.848
		c-1.941,1.942-4.214,3.478-6.816,4.608c-2.603,1.131-5.375,1.696-8.32,1.696c-2.986,0-5.791-0.565-8.416-1.696
		c-2.623-1.13-4.906-2.666-6.848-4.608c-1.941-1.941-3.478-4.224-4.607-6.848c-1.131-2.624-1.696-5.408-1.696-8.352
		c0-2.944,0.565-5.728,1.696-8.352c1.13-2.624,2.666-4.906,4.607-6.848c1.941-1.941,4.225-3.477,6.848-4.608
		C418.205,1.27,421.009,0.704,423.996,0.704z M441.66,22.208c0-2.474-0.459-4.789-1.375-6.944c-0.918-2.154-2.176-4.032-3.776-5.632
		c-1.601-1.6-3.478-2.869-5.632-3.808c-2.155-0.938-4.448-1.408-6.881-1.408c-2.475,0-4.799,0.47-6.975,1.408
		c-2.177,0.939-4.064,2.208-5.664,3.808c-1.601,1.6-2.871,3.478-3.809,5.632c-0.939,2.155-1.408,4.47-1.408,6.944
		c0,2.475,0.469,4.79,1.408,6.944c0.938,2.155,2.208,4.032,3.809,5.632c1.6,1.6,3.487,2.87,5.664,3.808
		c2.176,0.939,4.5,1.408,6.975,1.408c2.433,0,4.726-0.469,6.881-1.408c2.154-0.938,4.031-2.208,5.632-3.808s2.858-3.477,3.776-5.632
		C441.201,26.998,441.66,24.683,441.66,22.208z"/>
	<path d="M493.564,0.064v43.2h-3.712V9.408l-17.088,17.344L455.612,9.216v34.048H451.9V0l20.864,21.632L493.564,0.064z"/>
	<path d="M524.859,20.096h-11.071l-11.265,23.168h-4.352l21.12-42.304l20.8,42.304h-4.16L524.859,20.096z M515.515,16.448h7.68
		l-3.84-7.872L515.515,16.448z"/>
	<path d="M578.491,1.088v42.816l-30.08-34.368v33.728h-3.712V0.192l30.08,34.112V1.088H578.491z"/>
	<path d="M197.406,63.888V67.6H182.43v38.464h-3.712V67.6h-15.104v-3.712H197.406z"/>
	<path d="M217.182,82.896H206.11l-11.264,23.168h-4.352l21.12-42.304l20.8,42.304h-4.16L217.182,82.896z M207.838,79.248h7.68
		l-3.84-7.872L207.838,79.248z"/>
	<path d="M262.494,63.888V67.6h-14.976v38.464h-3.712V67.6h-15.104v-3.712H262.494z"/>
	<path d="M300.702,63.888V67.6h-14.976v38.464h-3.712V67.6H266.91v-3.712H300.702z"/>
	<path d="M320.478,63.504c2.943,0,5.717,0.566,8.32,1.696c2.602,1.131,4.873,2.667,6.815,4.608c1.94,1.942,3.466,4.224,4.576,6.848
		c1.108,2.624,1.663,5.408,1.663,8.352c0,2.944-0.555,5.728-1.663,8.352c-1.11,2.624-2.636,4.907-4.576,6.848
		c-1.942,1.942-4.214,3.478-6.815,4.608c-2.604,1.131-5.377,1.696-8.32,1.696c-2.987,0-5.793-0.565-8.416-1.696
		c-2.625-1.13-4.907-2.666-6.848-4.608c-1.943-1.941-3.479-4.224-4.608-6.848c-1.131-2.624-1.696-5.408-1.696-8.352
		c0-2.944,0.565-5.728,1.696-8.352c1.13-2.624,2.665-4.906,4.608-6.848c1.94-1.941,4.223-3.477,6.848-4.608
		C314.685,64.07,317.491,63.504,320.478,63.504z M338.142,85.008c0-2.474-0.459-4.789-1.377-6.944
		c-0.918-2.154-2.176-4.032-3.775-5.632c-1.6-1.6-3.479-2.869-5.632-3.808c-2.155-0.938-4.448-1.408-6.88-1.408
		c-2.475,0-4.801,0.47-6.977,1.408c-2.176,0.939-4.064,2.208-5.664,3.808c-1.6,1.6-2.869,3.478-3.808,5.632
		c-0.938,2.155-1.408,4.47-1.408,6.944c0,2.475,0.47,4.79,1.408,6.944c0.938,2.155,2.208,4.032,3.808,5.632s3.488,2.87,5.664,3.808
		c2.176,0.939,4.502,1.408,6.977,1.408c2.432,0,4.725-0.469,6.88-1.408c2.153-0.938,4.032-2.208,5.632-3.808
		s2.857-3.477,3.775-5.632C337.683,89.798,338.142,87.483,338.142,85.008z"/>
	<path d="M366.302,63.504c2.943,0,5.717,0.566,8.32,1.696c2.602,1.131,4.873,2.667,6.815,4.608c1.94,1.942,3.466,4.224,4.576,6.848
		c1.108,2.624,1.663,5.408,1.663,8.352c0,2.944-0.555,5.728-1.663,8.352c-1.11,2.624-2.636,4.907-4.576,6.848
		c-1.942,1.942-4.214,3.478-6.815,4.608c-2.604,1.131-5.377,1.696-8.32,1.696c-2.987,0-5.793-0.565-8.416-1.696
		c-2.625-1.13-4.907-2.666-6.848-4.608c-1.943-1.941-3.479-4.224-4.608-6.848c-1.132-2.624-1.696-5.408-1.696-8.352
		c0-2.944,0.564-5.728,1.696-8.352c1.13-2.624,2.665-4.906,4.608-6.848c1.94-1.941,4.223-3.477,6.848-4.608
		C360.509,64.07,363.315,63.504,366.302,63.504z M383.966,85.008c0-2.474-0.459-4.789-1.377-6.944
		c-0.918-2.154-2.176-4.032-3.775-5.632c-1.6-1.6-3.479-2.869-5.632-3.808c-2.155-0.938-4.448-1.408-6.88-1.408
		c-2.475,0-4.801,0.47-6.977,1.408c-2.176,0.939-4.064,2.208-5.664,3.808c-1.6,1.6-2.869,3.478-3.808,5.632
		c-0.938,2.155-1.408,4.47-1.408,6.944c0,2.475,0.47,4.79,1.408,6.944c0.938,2.155,2.208,4.032,3.808,5.632s3.488,2.87,5.664,3.808
		c2.176,0.939,4.502,1.408,6.977,1.408c2.432,0,4.725-0.469,6.88-1.408c2.153-0.938,4.032-2.208,5.632-3.808
		s2.857-3.477,3.775-5.632C383.507,89.798,383.966,87.483,383.966,85.008z"/>
	<path d="M422.75,92.752c-0.043,2.176-0.512,4.128-1.408,5.856c-0.896,1.728-2.134,3.2-3.711,4.416
		c-1.58,1.216-3.436,2.144-5.568,2.784c-2.135,0.64-4.459,0.96-6.977,0.96c-0.982,0-2.111-0.054-3.392-0.16
		c-1.28-0.107-2.593-0.267-3.937-0.48s-2.656-0.501-3.936-0.864c-1.28-0.362-2.411-0.778-3.393-1.248
		c0.213-0.469,0.448-1.056,0.705-1.76c0.256-0.704,0.512-1.269,0.768-1.696l0.384,0.128c2.176,0.683,4.33,1.259,6.464,1.728
		c2.133,0.47,4.373,0.704,6.721,0.704c1.449,0,2.985-0.202,4.607-0.608c1.621-0.405,3.114-1.034,4.48-1.888
		c1.365-0.853,2.496-1.941,3.392-3.264c0.896-1.322,1.344-2.922,1.344-4.8c0-0.512-0.171-1.29-0.512-2.336
		c-0.343-1.045-1.024-2.09-2.048-3.136c-1.024-1.045-2.496-1.973-4.416-2.784c-1.92-0.81-4.459-1.216-7.616-1.216
		c-1.28,0-2.699-0.17-4.256-0.512c-1.558-0.341-3.019-0.896-4.384-1.664c-1.366-0.768-2.508-1.77-3.424-3.008
		c-0.918-1.237-1.377-2.752-1.377-4.544v-0.256c0.086-2.944,1.473-5.248,4.16-6.912c2.688-1.664,6.357-2.538,11.008-2.624
		c1.066,0,2.059,0.022,2.977,0.064c0.917,0.043,1.824,0.15,2.72,0.32c0.896,0.171,1.802,0.395,2.72,0.672
		c0.918,0.278,1.889,0.651,2.912,1.12l-1.088,3.456c-1.408-0.725-2.88-1.301-4.416-1.728c-1.535-0.426-3.478-0.64-5.824-0.64
		c-1.621,0-3.115,0.128-4.479,0.384c-1.366,0.256-2.55,0.651-3.552,1.184c-1.004,0.534-1.793,1.206-2.368,2.016
		c-0.576,0.811-0.864,1.75-0.864,2.816c0,1.024,0.309,1.931,0.928,2.72c0.618,0.79,1.397,1.462,2.336,2.016
		c0.938,0.555,1.984,0.971,3.137,1.248c1.152,0.278,2.261,0.416,3.328,0.416h0.576c1.92,0,3.903,0.256,5.951,0.768
		c2.049,0.512,3.914,1.302,5.6,2.368c1.686,1.067,3.062,2.411,4.129,4.032c1.066,1.622,1.6,3.52,1.6,5.696V92.752z"/>
</g>
</svg>
