<?xml version="1.0" encoding="utf-8"?>
<!-- Generator: Adobe Illustrator 16.0.0, SVG Export Plug-In . SVG Version: 6.00 Build 0)  -->
<!DOCTYPE svg PUBLIC "-//W3C//DTD SVG 1.1//EN" "http://www.w3.org/Graphics/SVG/1.1/DTD/svg11.dtd">
<svg version="1.1"
	 id="Layer_1" inkscape:version="0.48.5 r10040" sodipodi:docname="wayward-woman.svg" xmlns:inkscape="http://www.inkscape.org/namespaces/inkscape" xmlns:rdf="http://www.w3.org/1999/02/22-rdf-syntax-ns#" xmlns:cc="http://creativecommons.org/ns#" xmlns:svg="http://www.w3.org/2000/svg" xmlns:sodipodi="http://sodipodi.sourceforge.net/DTD/sodipodi-0.dtd" xmlns:dc="http://purl.org/dc/elements/1.1/"
	 xmlns="http://www.w3.org/2000/svg" xmlns:xlink="http://www.w3.org/1999/xlink" x="0px" y="0px" width="581.371px"
	 height="106.768px" viewBox="0 0 581.371 106.768" enable-background="new 0 0 581.371 106.768" xml:space="preserve">
<sodipodi:namedview  id="namedview43" inkscape:window-x="176" inkscape:window-y="222" inkscape:window-maximized="0" inkscape:current-layer="g3" inkscape:window-height="480" inkscape:pageopacity="0" inkscape:pageshadow="2" inkscape:window-width="670" objecttolerance="10" inkscape:cx="290.68549" bordercolor="#666666" inkscape:zoom="0.55730337" gridtolerance="10" pagecolor="#ffffff" inkscape:cy="53.383999" showgrid="false" borderopacity="1" guidetolerance="10">
	</sodipodi:namedview>
<path id="path5" fill="#CA9E7D" d="M60.144,30.979c0.666-1.492,1.422-3.198,2.271-5.114c0.848-1.917,1.714-3.884,2.604-5.901
	c2.058-4.682,4.419-10.028,7.082-16.042h3.935l-18.04,40.436l-10.533-22.64l-10.896,22.64L18.406,3.921h3.935l14.226,32.143
	l9.08-18.522c-0.403-0.969-0.848-2.019-1.332-3.147c-0.484-1.13-0.989-2.28-1.514-3.451c-0.523-1.17-1.028-2.319-1.514-3.45
	c-0.483-1.129-0.929-2.18-1.331-3.147h3.874l3.693,8.717c0.483-1.129,0.958-2.209,1.422-3.238s0.855-1.946,1.181-2.754
	c0.403-0.928,0.787-1.796,1.15-2.603h3.874L49.46,17.54c0.888,1.776,1.645,3.35,2.271,4.722c0.625,1.373,1.312,2.866,2.059,4.48
	c0.747,1.613,1.433,3.107,2.059,4.479c0.625,1.372,1.341,2.966,2.147,4.782C58.761,34.148,59.478,32.472,60.144,30.979z"/>
<path id="path7" fill="#CA9E7D" d="M94.678,21.899H84.206L73.552,43.812h-4.116L89.412,3.8l19.673,40.013h-3.935L94.678,21.899z
	 M85.84,18.448h7.265l-3.632-7.444L85.84,18.448z"/>
<path id="path9" fill="#CA9E7D" d="M100.065,3.921h5.023l15.739,14.648l14.467-14.648h4.844L122.583,21.9v21.913h-3.511V21.899
	L100.065,3.921z"/>
<path id="path11" fill="#CA9E7D" d="M184.054,30.979c0.666-1.492,1.422-3.198,2.271-5.114c0.847-1.917,1.714-3.884,2.604-5.901
	c2.058-4.682,4.419-10.028,7.081-16.042h3.936l-18.038,40.437l-10.534-22.64l-10.896,22.64l-18.16-40.437h3.935l14.227,32.143
	l9.08-18.522c-0.403-0.969-0.848-2.019-1.332-3.147c-0.484-1.13-0.989-2.28-1.514-3.451c-0.524-1.17-1.028-2.319-1.513-3.45
	c-0.485-1.129-0.929-2.18-1.332-3.147h3.874l3.693,8.717c0.483-1.129,0.958-2.209,1.422-3.238s0.856-1.946,1.181-2.754
	c0.403-0.928,0.787-1.796,1.15-2.603h3.874l-5.69,13.075c0.887,1.776,1.645,3.35,2.271,4.722c0.624,1.373,1.311,2.866,2.058,4.48
	c0.747,1.613,1.432,3.107,2.058,4.479c0.625,1.372,1.342,2.966,2.148,4.782C182.672,34.148,183.389,32.472,184.054,30.979z"/>
<path id="path13" fill="#CA9E7D" d="M218.589,21.899h-10.472l-10.655,21.913h-4.115L213.323,3.8l19.673,40.013h-3.935
	L218.589,21.899z M209.751,18.448h7.265l-3.633-7.444L209.751,18.448z"/>
<path id="path15" fill="#CA9E7D" d="M240.865,21.838v21.974h-3.511V3.921h17.493c1.774,0,3.39,0.15,4.843,0.454
	c1.453,0.303,2.693,0.798,3.724,1.482c1.029,0.687,1.825,1.604,2.391,2.754c0.564,1.15,0.848,2.595,0.848,4.328
	c0,1.049-0.131,2.088-0.395,3.118c-0.263,1.029-0.695,1.967-1.301,2.814c-0.604,0.848-1.414,1.543-2.421,2.088
	c-1.01,0.545-2.261,0.837-3.754,0.877l11.501,21.974h-4.056l-11.139-21.974L240.865,21.838L240.865,21.838z M240.865,7.431v11.017
	h14.165c1.291,0,2.441-0.068,3.451-0.211c1.008-0.141,1.855-0.402,2.542-0.786c0.686-0.384,1.211-0.938,1.574-1.664
	c0.362-0.728,0.545-1.676,0.545-2.846c0-2.099-0.657-3.542-1.969-4.328s-3.42-1.181-6.325-1.181L240.865,7.431L240.865,7.431z"/>
<path id="path17" fill="#CA9E7D" d="M289.11,3.921c2.744,0,5.327,0.524,7.748,1.574c2.422,1.049,4.54,2.481,6.354,4.298
	c1.816,1.815,3.249,3.935,4.3,6.355c1.048,2.422,1.573,5.004,1.573,7.749s-0.525,5.327-1.573,7.748
	c-1.051,2.422-2.482,4.53-4.3,6.326c-1.814,1.795-3.935,3.219-6.354,4.267c-2.421,1.051-5.004,1.574-7.748,1.574h-12.833V3.921
	H289.11z M305.575,23.897c0-2.26-0.435-4.389-1.301-6.386c-0.868-1.998-2.049-3.743-3.541-5.236
	c-1.494-1.493-3.238-2.673-5.237-3.541c-1.998-0.867-4.127-1.302-6.386-1.302h-9.323v32.87h9.323c2.259,0,4.388-0.424,6.386-1.271
	s3.743-2.017,5.237-3.511c1.492-1.493,2.673-3.228,3.541-5.206C305.14,28.336,305.575,26.197,305.575,23.897z"/>
<path id="path19" fill="#CA9E7D" d="M380.424,30.979c0.667-1.492,1.424-3.198,2.271-5.114c0.848-1.917,1.715-3.884,2.603-5.901
	c2.061-4.682,4.42-10.028,7.083-16.042h3.936l-18.039,40.437l-10.532-22.64l-10.896,22.64L338.686,3.921h3.936l14.225,32.143
	l9.081-18.522c-0.403-0.969-0.849-2.019-1.332-3.147c-0.484-1.13-0.989-2.28-1.515-3.451c-0.524-1.17-1.028-2.319-1.514-3.45
	c-0.484-1.129-0.929-2.18-1.331-3.147h3.874l3.691,8.717c0.484-1.129,0.96-2.209,1.424-3.238c0.462-1.029,0.854-1.946,1.18-2.754
	c0.403-0.928,0.787-1.796,1.151-2.603h3.874l-5.69,13.075c0.887,1.776,1.644,3.35,2.269,4.722c0.626,1.373,1.312,2.866,2.062,4.48
	c0.746,1.613,1.432,3.107,2.058,4.479c0.624,1.372,1.342,2.966,2.147,4.782C379.042,34.148,379.759,32.472,380.424,30.979z"/>
<path id="path21" fill="#CA9E7D" d="M416.773,3.558c2.786,0,5.409,0.535,7.87,1.604c2.462,1.068,4.61,2.521,6.447,4.357
	c1.835,1.837,3.277,3.995,4.326,6.478c1.05,2.481,1.574,5.114,1.574,7.899c0,2.784-0.524,5.417-1.574,7.899
	c-1.049,2.481-2.491,4.641-4.326,6.478c-1.837,1.836-3.985,3.289-6.447,4.358c-2.462,1.07-5.084,1.604-7.87,1.604
	c-2.823,0-5.477-0.534-7.96-1.604c-2.479-1.069-4.64-2.521-6.477-4.358c-1.835-1.836-3.289-3.996-4.357-6.478
	c-1.07-2.482-1.604-5.115-1.604-7.899c0-2.785,0.533-5.418,1.604-7.899c1.069-2.482,2.522-4.641,4.357-6.478
	c1.836-1.836,3.997-3.289,6.477-4.357C411.298,4.093,413.949,3.558,416.773,3.558z M433.481,23.897c0-2.34-0.435-4.529-1.301-6.567
	c-0.868-2.038-2.059-3.814-3.571-5.327c-1.515-1.515-3.29-2.713-5.326-3.603c-2.039-0.887-4.208-1.331-6.51-1.331
	c-2.34,0-4.539,0.444-6.597,1.331c-2.06,0.89-3.845,2.088-5.357,3.603c-1.514,1.513-2.715,3.29-3.602,5.327
	c-0.89,2.038-1.332,4.228-1.332,6.567c0,2.341,0.442,4.531,1.332,6.567c0.887,2.039,2.088,3.813,3.602,5.328
	c1.514,1.513,3.299,2.714,5.357,3.602c2.058,0.888,4.257,1.332,6.597,1.332c2.302,0,4.471-0.444,6.51-1.332
	c2.036-0.888,3.812-2.088,5.326-3.602c1.514-1.515,2.703-3.289,3.571-5.328C433.048,28.427,433.481,26.238,433.481,23.897z"/>
<path id="path23" fill="#CA9E7D" d="M482.574,2.952v40.859h-3.511V11.79L462.9,28.195l-16.223-16.586v32.204h-3.511V2.892
	l19.732,20.46L482.574,2.952z"/>
<path id="path25" fill="#CA9E7D" d="M512.175,21.899h-10.473l-10.653,21.913h-4.116L506.908,3.8l19.673,40.013h-3.935
	L512.175,21.899z M503.337,18.448h7.264l-3.632-7.444L503.337,18.448z"/>
<path id="path27" fill="#CA9E7D" d="M562.9,3.921v40.497l-28.45-32.506v31.9h-3.511V3.073l28.45,32.266V3.921H562.9z"/>
<path id="path29" fill="#333333" d="M202.457,63.319v3.513h-14.165v36.38h-3.512V66.83h-14.286v-3.513L202.457,63.319
	L202.457,63.319z"/>
<path id="path31" fill="#333333" d="M221.162,81.297h-10.473l-10.653,21.913h-4.117l19.978-40.013l19.673,40.013h-3.936
	L221.162,81.297z M212.323,77.847h7.265l-3.632-7.445L212.323,77.847z"/>
<path id="path33" fill="#333333" d="M264.019,63.319v3.513h-14.165v36.38h-3.511V66.83h-14.287v-3.513L264.019,63.319
	L264.019,63.319z"/>
<path id="path35" fill="#333333" d="M300.158,63.319v3.513h-14.165v36.38h-3.511V66.83h-14.286v-3.513L300.158,63.319
	L300.158,63.319z"/>
<path id="path37" fill="#333333" d="M318.863,62.956c2.783,0,5.407,0.533,7.868,1.604c2.462,1.069,4.608,2.522,6.446,4.357
	c1.836,1.837,3.277,3.995,4.328,6.477c1.048,2.482,1.572,5.115,1.572,7.9s-0.524,5.417-1.572,7.898
	c-1.051,2.481-2.492,4.643-4.328,6.479c-1.838,1.836-3.985,3.289-6.446,4.356c-2.462,1.07-5.085,1.604-7.868,1.604
	c-2.826,0-5.479-0.534-7.96-1.604c-2.483-1.067-4.642-2.521-6.479-4.356c-1.837-1.836-3.29-3.996-4.356-6.479
	c-1.069-2.481-1.604-5.113-1.604-7.898s0.535-5.418,1.604-7.9c1.068-2.48,2.521-4.64,4.356-6.477
	c1.837-1.835,3.995-3.288,6.479-4.357C313.384,63.49,316.037,62.956,318.863,62.956z M335.57,83.295c0-2.34-0.434-4.529-1.303-6.568
	c-0.868-2.036-2.06-3.812-3.57-5.326c-1.513-1.514-3.29-2.714-5.327-3.602c-2.038-0.888-4.207-1.332-6.507-1.332
	c-2.342,0-4.541,0.444-6.6,1.332c-2.06,0.888-3.845,2.088-5.357,3.602s-2.713,3.29-3.602,5.326
	c-0.889,2.039-1.332,4.229-1.332,6.568c0,2.341,0.443,4.53,1.332,6.567c0.887,2.037,2.089,3.812,3.602,5.326
	c1.514,1.515,3.299,2.715,5.357,3.603c2.059,0.889,4.258,1.332,6.6,1.332c2.3,0,4.469-0.443,6.507-1.332
	c2.037-0.888,3.814-2.088,5.327-3.603c1.513-1.514,2.702-3.289,3.57-5.326C335.136,87.825,335.57,85.636,335.57,83.295z"/>
<path id="path39" fill="#333333" d="M362.205,62.956c2.783,0,5.407,0.533,7.869,1.604c2.461,1.069,4.609,2.522,6.446,4.357
	c1.834,1.837,3.277,3.995,4.328,6.477c1.048,2.482,1.571,5.115,1.571,7.9s-0.523,5.417-1.571,7.898
	c-1.051,2.481-2.494,4.643-4.328,6.479c-1.837,1.836-3.985,3.289-6.446,4.356c-2.463,1.07-5.086,1.604-7.869,1.604
	c-2.825,0-5.479-0.534-7.96-1.604c-2.481-1.067-4.642-2.521-6.478-4.356c-1.837-1.836-3.29-3.996-4.358-6.479
	c-1.071-2.481-1.604-5.113-1.604-7.898s0.532-5.418,1.604-7.9c1.069-2.48,2.521-4.64,4.358-6.477
	c1.835-1.835,3.995-3.288,6.478-4.357C356.725,63.49,359.38,62.956,362.205,62.956z M378.912,83.295c0-2.34-0.435-4.529-1.303-6.568
	c-0.868-2.036-2.059-3.812-3.57-5.326c-1.514-1.514-3.291-2.714-5.326-3.602c-2.039-0.888-4.208-1.332-6.508-1.332
	c-2.341,0-4.541,0.444-6.6,1.332s-3.843,2.088-5.357,3.602c-1.513,1.514-2.713,3.29-3.601,5.326
	c-0.889,2.039-1.332,4.229-1.332,6.568c0,2.341,0.443,4.53,1.332,6.567c0.887,2.037,2.088,3.812,3.601,5.326
	c1.516,1.515,3.3,2.715,5.357,3.603c2.059,0.889,4.259,1.332,6.6,1.332c2.3,0,4.469-0.443,6.508-1.332
	c2.035-0.888,3.812-2.088,5.326-3.603c1.514-1.514,2.702-3.289,3.57-5.326S378.912,85.636,378.912,83.295z"/>
<path id="path41" fill="#333333" d="M415.595,90.62c-0.041,2.058-0.484,3.903-1.332,5.538c-0.849,1.635-2.02,3.025-3.51,4.177
	c-1.494,1.148-3.25,2.027-5.268,2.633c-2.019,0.604-4.218,0.908-6.599,0.908c-0.93,0-1.997-0.051-3.209-0.151
	s-2.452-0.252-3.724-0.453c-1.271-0.202-2.513-0.475-3.724-0.816c-1.211-0.343-2.28-0.736-3.209-1.182
	c0.201-0.442,0.423-0.999,0.666-1.665s0.484-1.199,0.727-1.604l0.363,0.121c2.058,0.646,4.096,1.19,6.114,1.635
	c2.018,0.444,4.136,0.666,6.356,0.666c1.371,0,2.822-0.19,4.356-0.575c1.533-0.383,2.946-0.978,4.238-1.785
	c1.291-0.808,2.359-1.836,3.208-3.088c0.848-1.25,1.271-2.764,1.271-4.54c0-0.482-0.162-1.22-0.483-2.209
	c-0.324-0.987-0.97-1.977-1.938-2.966c-0.968-0.988-2.36-1.867-4.177-2.634c-1.815-0.767-4.218-1.149-7.204-1.149
	c-1.209,0-2.553-0.161-4.024-0.483c-1.474-0.323-2.854-0.849-4.146-1.574c-1.292-0.728-2.372-1.675-3.238-2.846
	c-0.868-1.169-1.304-2.604-1.304-4.299v-0.241c0.082-2.784,1.394-4.965,3.935-6.537c2.543-1.574,6.014-2.401,10.413-2.482
	c1.008,0,1.947,0.021,2.815,0.062c0.867,0.04,1.725,0.141,2.571,0.303c0.849,0.161,1.705,0.373,2.573,0.636
	c0.868,0.262,1.786,0.614,2.754,1.06l-1.028,3.269c-1.331-0.686-2.726-1.229-4.177-1.634c-1.451-0.403-3.291-0.605-5.509-0.605
	c-1.533,0-2.947,0.121-4.237,0.363c-1.292,0.242-2.412,0.616-3.358,1.119c-0.949,0.506-1.695,1.141-2.24,1.907
	c-0.545,0.766-0.817,1.654-0.817,2.663c0,0.969,0.293,1.826,0.879,2.572c0.585,0.747,1.32,1.384,2.209,1.906
	c0.888,0.525,1.876,0.919,2.968,1.181c1.09,0.265,2.139,0.395,3.147,0.395h0.546c1.814,0,3.689,0.242,5.629,0.727
	c1.938,0.484,3.7,1.231,5.296,2.239c1.595,1.01,2.896,2.281,3.904,3.814c1.01,1.533,1.514,3.327,1.514,5.388v0.238H415.595z"/>
</svg>
